<?xml version="1.0" encoding="utf-8"?>
<!-- Generator: Adobe Illustrator 22.1.0, SVG Export Plug-In . SVG Version: 6.00 Build 0)  -->
<svg version="1.1"
	 id="Layer_1" shape-rendering="geometricPrecision" image-rendering="optimizeQuality" text-rendering="geometricPrecision"
	 xmlns="http://www.w3.org/2000/svg" xmlns:xlink="http://www.w3.org/1999/xlink" x="0px" y="0px" viewBox="0 0 580 580"
	 style="enable-background:new 0 0 580 580;" xml:space="preserve">
<style type="text/css">
	.st0{fill:#FFFFFF;}
</style>
<title>garbage_can icon</title>
<desc>garbage_can icon from the IconExperience.com I-Collection. Copyright by INCORS GmbH (www.incors.com).</desc>
<path id="curve28" class="st0" d="M400,481c0,5.3,5,9,10,9c5.9,0,9.6-5.2,10-10.7l19.2-260c0.4-5.1-4.6-8.9-9.2-9.3
	c-6.3-0.4-10.4,4.8-10.9,10.7L400,481z M489.2,170L460,521.8c-1.3,15.8-14,28.2-30,28.2H150c-16,0-28.7-12.4-30-28.2L90.8,170H70
	v-50c0-16.5,13.5-30,30-30h110V50c0-11,9-20,20-20h120c11,0,20,9,20,20v40h110c16.5,0,30,13.5,30,30v50H489.2z M110.9,170L140,520.2
	c0.4,5.4,4.4,9.8,10,9.8h280c5.6,0,9.6-4.4,10-9.8L469.1,170H110.9z M230,90h120c0-13.3,0-26.7,0-40c0,0-110,0-120,0V90z M480,110
	H100c-5.5,0-10,4.5-10,10v30h400v-30C490,114.5,485.5,110,480,110z M242.8,191.2c16.9,0,29.9,13.4,30.3,29.8l6.9,259.5
	c0,16.1-13.3,29-29.2,29.5c-16.7,1-30.3-13.7-30.8-29.8l-6.8-259.5C213.2,204.6,226.5,191.7,242.8,191.2z M243,211.2
	c-5.3,0.1-9.8,4.2-9.8,9.5l6.8,259.1c0.1,5.5,4.4,10.2,10.1,10.2c5.3-0.2,9.9-4.2,9.9-9.5l-6.8-259.1
	C253.1,216,248.8,211.2,243,211.2z M337,211.2c-5.8,0-10.1,4.8-10.2,10.2L320,480.5c0,5.3,4.6,9.4,9.7,9.5
	c5.9-0.6,10.2-3.9,10.3-10.2l6.8-259.1C346.8,215.4,342.3,211.3,337,211.2z M366.8,220.9L360,480.2c-0.5,16.7-13.6,29.8-30.4,29.8
	c-16.3-0.5-29.6-13.4-29.6-29.5l6.9-259.5c0.4-16.4,13.4-29.8,29.9-29.8l0.8,0.1C353.7,191.7,366.9,204.7,366.8,220.9z M150.8,190
	c16.5,0,28.8,13.3,30,29.3l19.2,260c1.2,16.9-13.5,30.7-30,30.7s-28.8-13.3-30-29.3l-19.1-260c-1.2-16.1,12-29.4,27.7-30.6
	C149.4,190,150.1,190,150.8,190z M150.8,210H150c-4.5,0.3-9.2,3.9-9.2,9L160,479.3c0.4,5.8,4.5,11.1,10.8,10.7
	c4.6-0.4,9.6-4.2,9.2-9.3l-19.1-260C160.5,215.2,156.7,210,150.8,210z M380,481.3l19.2-262c1.2-16,13.5-29.3,30-29.3
	c15.7,0,30,12.6,30,28.7c0,0.2,0,2-0.1,2l-19.1,260c-1.2,16-13.5,29.3-30,29.3C394.3,510,380,497.4,380,481.3z"/>
</svg>
