<?xml version="1.0" encoding="utf-8"?>
<!-- Generator: Adobe Illustrator 22.1.0, SVG Export Plug-In . SVG Version: 6.00 Build 0)  -->
<svg version="1.1"
	 id="Layer_1" image-rendering="optimizeQuality" shape-rendering="geometricPrecision" text-rendering="geometricPrecision"
	 xmlns="http://www.w3.org/2000/svg" xmlns:xlink="http://www.w3.org/1999/xlink" x="0px" y="0px" viewBox="0 0 580 580"
	 style="enable-background:new 0 0 580 580;" xml:space="preserve">
<style type="text/css">
	.st0{fill:#FFFFFF;}
</style>
<title>pencil icon</title>
<desc>pencil icon from the IconExperience.com I-Collection. Copyright by INCORS GmbH (www.incors.com).</desc>
<path id="curve28" class="st0" d="M467,56.5l56.5,56.5c15.6,15.6,15.6,41,0,56.6L209.2,484l-80,29l-14.7,5.4L71.6,534
	c-7.3,2.7-15.4,0.9-20.9-4.7c-5.6-5.5-7.4-13.5-4.7-20.9l15.6-42.9l5.4-14.7l29-80L410.4,56.5C425.9,40.9,451.5,40.9,467,56.5z
	 M82.5,466.4l31.1,31.1l71.9-26.1l-76.9-76.9L82.5,466.4z M391.5,245.7L217.1,420.1l-14.2-14.2l174.4-174.4L391.5,245.7z
	 M360.9,134.2l84.9,84.9l63.6-63.7c7.8-7.8,7.8-20.4,0-28.2l-56.6-56.6c-7.7-7.7-20.5-7.7-28.2,0L360.9,134.2z M431.6,233.2
	l-84.8-84.8l-228,228l84.8,84.8L431.6,233.2z"/>
</svg>
